<?xml version="1.0" encoding="UTF-8"?>
<svg id="Layer_2" data-name="Layer 2" xmlns="http://www.w3.org/2000/svg" viewBox="0 0 838.29 336.04">
  <defs>
    <style>
      .cls-1 {
        opacity: .9;
      }

      .cls-2 {
        fill: #fff;
        fill-rule: evenodd;
        stroke-width: 0px;
      }
    </style>
  </defs>
  <g id="Layer_1-2" data-name="Layer 1">
    <g class="cls-1">
      <path id="Subtract" class="cls-2" d="m31.58,64.08C20.42,72.08-1.52,99.79.08,146.58c.33,9.76.47,17.82.59,24.68.59,34.26.66,38.49,21.91,74.32,25.5,43,23.42,27.92,38.42,47.92,6.82,9.09,10.58,9.45,15.65,9.92,6.08.58,14.02,1.33,31.35,17.58,8,7.5,18,15,41,12,8.99-1.17,14.84.33,19.84,1.61,7.79,1.99,13.48,3.45,25.66-6.61,12.4-10.23,10.06-18.16,8.72-22.7-.82-2.78-1.27-4.3,2.28-4.3,2.62,0,6.72.8,11.34,1.71,11.26,2.21,25.61,5.02,29.16-1.71,5.44-10.34,9.5-38.5,58-40.5s336.58-34.42,456.08-45.92,99.5-34-42.5-36-315-3-337-7c-7.58-1.38-6.79-9.52-5.65-21.33,2.17-22.49,5.63-58.3-44.85-86.17-4.59-2.53-9.32-5.18-14.18-7.92C239.08,13.06,128.92-48.77,31.58,64.08Zm111.64,91.18c10.37-5.59,22.77-12.28,36.36-22.18,32.84-23.91,43.72-31.89,47.3-29.39,2.03,1.42,1.7,6.22,1.7,13.39,0,27.5-14,31.5-25.5,65-17.29,50.37-28,69.5-49.5,60.5-5.87-2.46-11.02-2.42-15.59-2.38-12.16.09-20.1.15-25.91-47.12-2.43-19.72,10.23-26.54,31.14-37.82Z"/>
    </g>
  </g>
</svg>