<svg width="949.000000" height="447.000000" viewBox="0 0 949 447" fill="none" xmlns="http://www.w3.org/2000/svg" xmlns:xlink="http://www.w3.org/1999/xlink">
	<desc>
			Created with Pixso.
	</desc>
	<defs>
		<filter id="filter_700_816_dd" x="-0.299988" y="-0.300049" width="948.892273" height="446.642334" filterUnits="userSpaceOnUse" color-interpolation-filters="sRGB">
			<feFlood flood-opacity="0" result="BackgroundImageFix"/>
			<feBlend mode="normal" in="SourceGraphic" in2="BackgroundImageFix" result="shape"/>
			<feGaussianBlur stdDeviation="18.4333" result="effect_layerBlur_1"/>
		</filter>
	</defs>
	<g opacity="0.900000" filter="url(#filter_700_816_dd)">
		<path id="Subtract" d="M86.583 119.084C75.4163 127.084 53.483 154.785 55.083 201.584C55.4166 211.343 55.5554 219.404 55.6736 226.262C56.2635 260.517 56.3366 264.757 77.583 300.584C103.083 343.584 101 328.5 116 348.5C122.817 357.589 126.583 357.946 131.646 358.425C137.724 359 145.669 359.752 163 376C171 383.5 181 391 204 388C212.985 386.828 218.842 388.327 223.835 389.605C231.624 391.598 237.313 393.054 249.5 383C261.902 372.768 259.564 364.844 258.223 360.299C257.402 357.515 256.955 356 260.5 356C263.119 356 267.22 356.804 271.841 357.711C283.102 359.92 297.455 362.736 301 356C306.441 345.662 310.5 317.5 359 315.5C407.5 313.5 695.583 281.084 815.083 269.584C934.583 258.084 914.583 235.584 772.583 233.584C630.583 231.584 457.583 230.584 435.583 226.584C428.006 225.207 428.792 217.067 429.933 205.251C432.104 182.76 435.562 146.947 385.083 119.084C380.498 116.554 375.767 113.899 370.903 111.169C294.081 68.0552 183.92 6.23022 86.583 119.084ZM198.219 210.264C208.589 204.671 220.988 197.983 234.583 188.084C267.422 164.172 278.305 156.196 281.88 158.691C283.911 160.109 283.583 164.907 283.583 172.084C283.583 199.584 269.583 203.584 258.083 237.084C240.791 287.456 230.083 306.584 208.583 297.584C202.717 295.129 197.558 295.167 192.995 295.201C180.833 295.291 172.9 295.35 167.083 248.084C164.656 228.366 177.314 221.539 198.219 210.264Z" clip-rule="evenodd" fill="#FFFFFF" fill-opacity="1.000000" fill-rule="evenodd"/>
	</g>
</svg>
