<svg width="122.000000" height="157.000000" viewBox="0 0 122 157" fill="none" xmlns="http://www.w3.org/2000/svg" xmlns:xlink="http://www.w3.org/1999/xlink">
	<desc>
			Created with Pixso.
	</desc>
	<defs/>
	<g opacity="0.500000">
		<path id="Vector" d="M32.86 147.33C32.54 151.49 43.31 155.63 56.92 156.59C70.53 157.55 81.81 154.97 82.13 150.81C82.45 146.65 71.68 142.5 58.07 141.55C44.46 140.59 33.18 143.17 32.86 147.31L32.86 147.33Z" fill="#D4D4D5" fill-opacity="1.000000" fill-rule="nonzero"/>
	</g>
	<path id="Vector" d="M65.62 112.49C63.87 116.38 61.32 126.13 66.19 128.5C71.07 130.87 82.63 128.92 86.6 127.72C90.56 126.52 118.52 116.52 118.25 85.02C118.08 66.95 115.94 45.65 109.87 41.33C103.78 37.01 93.56 33.16 94.12 49.18C94.67 65.18 96.75 81.51 96.21 93.24C95.67 104.96 89.23 113.08 80.29 114.23C71.35 115.4 67.66 108.06 65.64 112.49L65.62 112.49Z" fill="#90CA5D" fill-opacity="1.000000" fill-rule="nonzero"/>
	<g opacity="0.500000">
		<path id="Vector" d="M94.1 49.18C94.13 50.07 94.18 50.95 94.22 51.84C94.47 52.18 94.62 52.38 94.62 52.38C95.08 40.31 100.66 41.31 100.66 41.31C97.94 48.69 102.28 60.08 102.28 60.08C100.73 51.31 103.98 41.85 103.98 41.85C108.01 50.64 109.44 78.34 109.44 78.34C111.06 66.68 107.96 44.89 107.96 44.89C107.96 44.89 113.83 53.9 113.29 89.13C112.75 124.36 74.9 127.7 69.04 125.62C63.18 123.54 64.54 115.37 64.54 115.37C63.13 119.94 62.23 126.61 66.16 128.53C71.03 130.9 82.6 128.95 86.56 127.75C90.53 126.55 118.48 116.56 118.21 85.05C118.04 66.98 115.9 45.68 109.83 41.36C103.75 37.04 93.53 33.19 94.08 49.21L94.1 49.18Z" fill="#90CA5D" fill-opacity="1.000000" fill-rule="nonzero"/>
	</g>
	<g opacity="0.300000">
		<path id="Vector" d="M69.92 116.47C69.92 116.47 75.69 118.2 82.19 115.84C88.69 113.49 99.65 113.26 98.47 82.4C98.47 82.4 104.01 105.39 93.02 113.71C82.03 122.05 69.94 116.46 69.94 116.46L69.92 116.47Z" fill="#D1F6FF" fill-opacity="1.000000" fill-rule="nonzero"/>
	</g>
	<g opacity="0.300000">
		<path id="Vector" d="M104.03 59.93C104.03 59.93 100.29 66.07 101.87 73.68C103.48 81.28 107.78 93.86 106.16 98.59C104.54 103.32 109.06 91.44 105.31 81.51C101.59 71.58 104.03 59.93 104.03 59.93Z" fill="#D1F6FF" fill-opacity="1.000000" fill-rule="nonzero"/>
	</g>
	<path id="Vector" d="M51.07 149.67C51.07 147.12 54.76 120.7 50.55 100.36C46.33 80.01 38.41 49.01 44.75 30.72C51.09 12.42 54.24 4.28 67.97 5.31C81.67 6.33 85.37 9.89 85.37 30.22C85.37 50.54 82.21 72.91 81.15 89.7C80.11 106.47 76.94 123.75 80.11 139.51C83.28 155.28 70.09 157.31 63.75 155.78C57.43 154.25 51.09 149.69 51.09 149.69L51.07 149.67Z" fill="#90CA5D" fill-opacity="1.000000" fill-rule="nonzero"/>
	<g opacity="0.500000">
		<path id="Vector" d="M67.95 5.29C81.66 6.32 85.35 9.87 85.35 30.2C85.35 35.3 85.15 40.52 84.84 45.75C84.91 44.56 83.93 11.81 76.03 10.3C76.03 10.3 74.05 39.66 72.47 44.99C72.47 44.99 73.65 11.06 72.47 10.3C71.27 9.53 61.78 22.87 61.39 40.42C61.39 40.42 59.42 15.64 66.53 9.92C66.53 9.92 55.07 7.26 52.69 23.26C50.31 39.28 51.51 56.42 51.51 67.86C51.51 79.3 58.37 95.4 56.8 104.58C55.22 113.78 56.26 132.28 55.47 138.39C54.68 144.49 56.26 149.07 62.2 149.46C68.13 149.83 70.9 134.59 70.9 134.59C70.9 134.59 69.31 146.4 68.13 149.85C68.13 149.85 77.24 154.04 77.63 147.95C78.02 141.85 74.46 127.74 76.04 117.45C76.04 117.45 79.06 135.39 80.51 142.62C81.44 155.53 69.62 157.21 63.73 155.78C57.41 154.25 51.07 149.69 51.07 149.69C51.07 147.14 54.76 120.72 50.55 100.37C46.33 80.03 38.41 49.03 44.75 30.74C51.09 12.44 54.24 4.3 67.97 5.32L67.95 5.29Z" fill="#90CA5D" fill-opacity="1.000000" fill-rule="nonzero"/>
	</g>
	<g opacity="0.300000">
		<path id="Vector" d="M56.63 40.79C56.63 40.79 58.61 67.1 62.96 88.84C67.31 110.56 64.15 131.54 63.35 129.64C62.55 127.73 55.44 59.48 56.62 40.81L56.63 40.79Z" fill="#D1F6FF" fill-opacity="1.000000" fill-rule="nonzero"/>
	</g>
	<g opacity="0.300000">
		<path id="Vector" d="M64.16 41.28C64.16 41.28 65.57 58.08 68.47 71.94C71.37 85.8 69.47 99.22 68.96 98C68.44 96.78 63.52 53.22 64.17 41.28L64.16 41.28Z" fill="#D1F6FF" fill-opacity="1.000000" fill-rule="nonzero"/>
	</g>
	<g opacity="0.300000">
		<path id="Vector" d="M77.71 93.22C77.71 93.22 78.15 79.79 79.89 68.64C81.64 57.5 79.57 46.89 79.21 47.88C78.86 48.87 76.7 83.75 77.71 93.22Z" fill="#D1F6FF" fill-opacity="1.000000" fill-rule="nonzero"/>
	</g>
	<path id="Vector" d="M50.88 76.1C52.92 78.31 56.68 84.24 53.51 86.77C50.34 89.31 41.37 90.33 38.22 90.33C35.07 90.33 12.37 89.32 6.57 68.48C3.25 56.52 0.77 42.04 4.46 37.98C8.16 33.92 15.02 29.34 17.65 40.01C20.28 50.69 21.87 61.86 24.51 69.5C27.14 77.12 33.48 81.18 40.33 80.18C47.19 79.17 48.54 73.58 50.88 76.11L50.88 76.1Z" fill="#90CA5D" fill-opacity="1.000000" fill-rule="nonzero"/>
	<g opacity="0.500000">
		<path id="Vector" d="M17.65 40C17.8 40.58 17.94 41.18 18.07 41.78C17.94 42.06 17.87 42.22 17.87 42.22C15.24 34.34 11.28 36.13 11.28 36.13C14.7 40.45 13.65 48.83 13.65 48.83C13.13 42.74 8.92 37.14 8.92 37.14C7.6 43.75 11.82 62.3 11.82 62.3C8.39 54.93 6.54 39.93 6.54 39.93C6.54 39.93 3.91 47.05 11.02 70.18C18.14 93.32 46.89 87.98 50.85 85.44C54.81 82.91 52.23 77.77 52.23 77.77C54.16 80.5 56.09 84.73 53.55 86.77C50.38 89.31 41.41 90.33 38.26 90.33C35.1 90.33 12.41 89.32 6.61 68.48C3.28 56.52 0.81 42.04 4.5 37.98C8.19 33.92 15.05 29.34 17.68 40.01L17.65 40Z" fill="#90CA5D" fill-opacity="1.000000" fill-rule="nonzero"/>
	</g>
	<g opacity="0.300000">
		<path id="Vector" d="M48.46 79.57C48.46 79.57 44.49 81.86 39.23 81.6C33.96 81.34 25.78 83.38 20.77 62.79C20.77 62.79 21.04 79.05 30.79 82.37C40.55 85.67 48.46 79.57 48.46 79.57Z" fill="#D1F6FF" fill-opacity="1.000000" fill-rule="nonzero"/>
	</g>
	<g opacity="0.300000">
		<path id="Vector" d="M12.32 49.08C12.32 49.08 16.28 52.39 16.54 57.72C16.81 63.07 16.02 72.21 18.12 75.01C20.23 77.8 14.62 70.87 15.49 63.57C16.37 56.27 12.32 49.08 12.32 49.08Z" fill="#D1F6FF" fill-opacity="1.000000" fill-rule="nonzero"/>
	</g>
	<path id="Vector" d="M45.96 37.85L45.91 39.09L33.96 33.12L34.73 32.34L45.96 37.85Z" fill="#ACD65B" fill-opacity="1.000000" fill-rule="nonzero"/>
	<path id="Vector" d="M46.48 57.48L47.53 58.2L35.73 64.47L35.49 63.43L46.48 57.48Z" fill="#ACD65B" fill-opacity="1.000000" fill-rule="nonzero"/>
	<path id="Vector" d="M61.41 53.61L60.21 53.17L70.04 44.27L70.54 45.23L61.41 53.61Z" fill="#ACD65B" fill-opacity="1.000000" fill-rule="nonzero"/>
	<path id="Vector" d="M94.03 21.17L94.94 22.04L82.2 26.27L82.15 25.21L94.03 21.17Z" fill="#ACD65B" fill-opacity="1.000000" fill-rule="nonzero"/>
	<path id="Vector" d="M60.75 26.3L60.04 27.32L53.03 16.24L54.1 15.97L60.75 26.3Z" fill="#ACD65B" fill-opacity="1.000000" fill-rule="nonzero"/>
	<path id="Vector" d="M61.83 12.31L60.56 12.54L64.05 0L65 0.56L61.83 12.31Z" fill="#ACD65B" fill-opacity="1.000000" fill-rule="nonzero"/>
	<path id="Vector" d="M86.06 55.99L85.75 57.17L75.35 48.92L76.28 48.32L86.06 55.99Z" fill="#ACD65B" fill-opacity="1.000000" fill-rule="nonzero"/>
	<path id="Vector" d="M7.06 62.89L7.36 63.57L-0.88 63.23L-0.64 62.62L7.06 62.89Z" fill="#ACD65B" fill-opacity="1.000000" fill-rule="nonzero"/>
	<path id="Vector" d="M22.24 45.73L23.03 45.75L19.39 52.88L18.9 52.43L22.24 45.73Z" fill="#ACD65B" fill-opacity="1.000000" fill-rule="nonzero"/>
	<path id="Vector" d="M10.65 71.84L11.45 71.84L7.82 78.99L7.31 78.54L10.65 71.84Z" fill="#ACD65B" fill-opacity="1.000000" fill-rule="nonzero"/>
	<path id="Vector" d="M5.95 45.81L5.75 46.55L-0.51 41.36L0.06 41.01L5.95 45.81Z" fill="#ACD65B" fill-opacity="1.000000" fill-rule="nonzero"/>
	<path id="Vector" d="M121.3 90.63L121.94 91.07L114.71 94.88L114.55 94.25L121.3 90.63Z" fill="#ACD65B" fill-opacity="1.000000" fill-rule="nonzero"/>
	<path id="Vector" d="M97.68 103.38L97.47 104.11L91.22 98.93L91.79 98.57L97.68 103.38Z" fill="#ACD65B" fill-opacity="1.000000" fill-rule="nonzero"/>
	<path id="Vector" d="M113.19 113.01L112.68 113.58L109.38 106.3L110.05 106.22L113.19 113.01Z" fill="#ACD65B" fill-opacity="1.000000" fill-rule="nonzero"/>
	<path id="Vector" d="M114.82 44.11L115.62 44.14L111.84 51.19L111.35 50.74L114.82 44.11Z" fill="#ACD65B" fill-opacity="1.000000" fill-rule="nonzero"/>
	<path id="Vector" d="M121.74 63.52L121.91 64.27L113.88 62.45L114.22 61.88L121.74 63.52Z" fill="#ACD65B" fill-opacity="1.000000" fill-rule="nonzero"/>
	<path id="Vector" d="M97.47 82.73L98.2 83.02L92.06 88.33L91.77 87.73L97.47 82.73Z" fill="#ACD65B" fill-opacity="1.000000" fill-rule="nonzero"/>
	<path id="Vector" d="M98.55 67.73L98.45 68.48L91.59 64.08L92.11 63.67L98.55 67.73Z" fill="#ACD65B" fill-opacity="1.000000" fill-rule="nonzero"/>
	<path id="Vector" d="M64.04 100.47C64.04 100.47 55.36 91.02 50.16 94.56C44.96 98.1 35.81 102.29 33.57 103.45C31.33 104.6 26.29 104.99 26.68 101.65C27.07 98.3 28.9 96.5 29.93 97.81C30.95 99.12 32.89 99.63 32.89 99.63C32.89 99.63 30.36 93.62 26.1 95.94C21.84 98.27 18.95 103.59 25.91 108.13C32.88 112.66 44.08 106.88 47.03 104.72C49.97 102.54 55.19 107.2 59.73 108.05C64.27 108.89 67.45 106.31 64.04 100.48L64.04 100.47Z" fill="#3F2705" fill-opacity="1.000000" fill-rule="nonzero"/>
	<g opacity="0.500000">
		<path id="Vector" d="M25.91 108.13C32.88 112.66 44.08 106.88 47.03 104.72C49.97 102.54 55.19 107.2 59.73 108.05C64.27 108.89 67.46 106.31 64.04 100.48C64.04 100.48 60.47 96.6 56.53 94.74C65.23 100.7 57.5 104.59 54.55 102.56C51.6 100.53 46.71 102.18 43.77 104.36C40.83 106.53 30.89 108.79 25.59 105.81C20.29 102.82 25.09 96.59 25.09 96.59C21.43 99.15 19.52 103.98 25.92 108.14L25.91 108.13Z" fill="#3F2705" fill-opacity="1.000000" fill-rule="nonzero"/>
	</g>
	<path id="Vector" d="M44.93 98.74C44.34 98.82 49.28 96.54 50.12 95.9C50.95 95.25 53.46 94.13 55.24 95.24C57.01 96.36 58.12 98 58.12 98C58.12 98 54.44 95.03 52.75 95.72C51.07 96.42 47.45 98.46 44.93 98.75L44.93 98.74Z" fill="#5B4640" fill-opacity="1.000000" fill-rule="nonzero"/>
	<path id="Vector" d="M28.01 97.31C28.01 97.31 26.04 98.34 25.74 100.81C25.47 102.95 26.54 104.12 26.41 104.07C26.13 103.94 24.49 102.38 25.2 99.97C25.9 97.56 27.07 97.4 28 97.32L28.01 97.31Z" fill="#5B4640" fill-opacity="1.000000" fill-rule="nonzero"/>
	<path id="Vector" d="M63.95 99.31C63.95 99.31 72.01 89.37 77.42 92.59C82.83 95.81 92.24 99.46 94.55 100.48C96.86 101.5 101.91 101.59 101.31 98.28C100.71 94.96 98.76 93.27 97.83 94.64C96.89 96.01 94.98 96.63 94.98 96.63C94.98 96.63 97.13 90.49 101.53 92.55C105.93 94.61 109.15 99.76 102.49 104.7C95.82 109.63 84.27 104.53 81.2 102.54C78.12 100.54 73.2 105.5 68.73 106.61C64.26 107.73 60.92 105.34 63.95 99.31Z" fill="#3F2705" fill-opacity="1.000000" fill-rule="nonzero"/>
	<g opacity="0.500000">
		<path id="Vector" d="M102.49 104.7C95.82 109.63 84.27 104.53 81.2 102.53C78.12 100.54 73.2 105.5 68.73 106.61C64.26 107.73 60.92 105.34 63.95 99.31C63.95 99.31 67.26 95.22 71.07 93.14C62.77 99.6 70.73 103.02 73.54 100.81C76.36 98.61 81.34 99.98 84.42 101.98C87.5 103.98 97.55 105.65 102.65 102.36C107.75 99.06 102.57 93.12 102.57 93.12C106.38 95.46 108.6 100.17 102.48 104.7L102.49 104.7Z" fill="#3F2705" fill-opacity="1.000000" fill-rule="nonzero"/>
	</g>
	<path id="Vector" d="M82.91 96.45C83.5 96.49 78.43 94.51 77.55 93.91C76.67 93.32 74.1 92.34 72.4 93.55C70.7 94.77 69.69 96.48 69.69 96.48C69.69 96.48 73.18 93.3 74.9 93.89C76.63 94.49 80.38 96.3 82.91 96.45Z" fill="#5B4640" fill-opacity="1.000000" fill-rule="nonzero"/>
	<path id="Vector" d="M99.71 94.02C99.71 94.02 101.74 94.93 102.2 97.38C102.6 99.5 101.61 100.73 101.73 100.67C102 100.52 103.54 98.87 102.68 96.51C101.83 94.14 100.65 94.05 99.71 94.02Z" fill="#5B4640" fill-opacity="1.000000" fill-rule="nonzero"/>
</svg>
