<svg width="123.000000" height="157.000000" viewBox="0 0 123 157" fill="none" xmlns="http://www.w3.org/2000/svg" xmlns:xlink="http://www.w3.org/1999/xlink">
	<desc>
			Created with Pixso.
	</desc>
	<defs/>
	<g opacity="0.500000">
		<path id="Vector" d="M89.07 147.33C89.39 151.49 78.62 155.63 65.01 156.59C51.41 157.55 40.13 154.97 39.8 150.81C39.48 146.65 50.26 142.5 63.87 141.55C77.47 140.59 88.75 143.17 89.07 147.31L89.07 147.33Z" fill="#D4D4D5" fill-opacity="1.000000" fill-rule="nonzero"/>
	</g>
	<path id="Vector" d="M56.31 112.49C58.07 116.38 60.61 126.13 55.74 128.5C50.87 130.87 39.3 128.92 35.34 127.72C31.38 126.52 3.42 116.52 3.69 85.02C3.86 66.95 6 45.65 12.07 41.33C18.16 37.01 28.37 33.16 27.82 49.18C27.26 65.18 25.19 81.51 25.73 93.24C26.27 104.96 32.71 113.08 41.64 114.23C50.58 115.4 54.27 108.06 56.3 112.49L56.31 112.49Z" fill="#90CA5D" fill-opacity="1.000000" fill-rule="nonzero"/>
	<g opacity="0.500000">
		<path id="Vector" d="M27.83 49.18C27.8 50.07 27.75 50.95 27.72 51.84C27.46 52.18 27.31 52.38 27.31 52.38C26.86 40.31 21.27 41.31 21.27 41.31C23.99 48.69 19.66 60.08 19.66 60.08C21.21 51.31 17.95 41.85 17.95 41.85C13.92 50.64 12.49 78.34 12.49 78.34C10.87 66.68 13.97 44.89 13.97 44.89C13.97 44.89 8.11 53.9 8.65 89.13C9.18 124.36 47.04 127.7 52.89 125.62C58.76 123.54 57.39 115.37 57.39 115.37C58.81 119.94 59.7 126.61 55.77 128.53C50.9 130.9 39.33 128.95 35.37 127.75C31.41 126.55 3.45 116.56 3.72 85.05C3.89 66.98 6.03 45.68 12.1 41.36C18.19 37.04 28.41 33.19 27.85 49.21L27.83 49.18Z" fill="#90CA5D" fill-opacity="1.000000" fill-rule="nonzero"/>
	</g>
	<g opacity="0.300000">
		<path id="Vector" d="M52.01 116.47C52.01 116.47 46.25 118.2 39.74 115.84C33.25 113.49 22.29 113.26 23.47 82.4C23.47 82.4 17.92 105.39 28.91 113.71C39.91 122.05 52 116.46 52 116.46L52.01 116.47Z" fill="#D1F6FF" fill-opacity="1.000000" fill-rule="nonzero"/>
	</g>
	<g opacity="0.300000">
		<path id="Vector" d="M17.9 59.93C17.9 59.93 21.64 66.07 20.06 73.68C18.46 81.28 14.16 93.86 15.78 98.59C17.4 103.32 12.88 91.44 16.62 81.51C20.35 71.58 17.9 59.93 17.9 59.93Z" fill="#D1F6FF" fill-opacity="1.000000" fill-rule="nonzero"/>
	</g>
	<path id="Vector" d="M70.86 149.67C70.86 147.12 67.17 120.7 71.39 100.36C75.6 80.01 83.53 49.01 77.19 30.72C70.85 12.42 67.69 4.28 53.97 5.31C40.26 6.33 36.57 9.89 36.57 30.22C36.57 50.54 39.72 72.91 40.78 89.7C41.83 106.47 45 123.75 41.83 139.51C38.66 155.28 51.84 157.31 58.18 155.78C64.51 154.25 70.85 149.69 70.85 149.69L70.86 149.67Z" fill="#90CA5D" fill-opacity="1.000000" fill-rule="nonzero"/>
	<g opacity="0.500000">
		<path id="Vector" d="M53.99 5.29C40.28 6.32 36.58 9.87 36.58 30.2C36.58 35.3 36.79 40.52 37.09 45.75C37.02 44.56 38 11.81 45.91 10.3C45.91 10.3 47.88 39.66 49.47 44.99C49.47 44.99 48.29 11.06 49.47 10.3C50.66 9.53 60.16 22.87 60.54 40.42C60.54 40.42 62.52 15.64 55.4 9.92C55.4 9.92 66.87 7.26 69.24 23.26C71.62 39.28 70.43 56.42 70.43 67.86C70.43 79.3 63.56 95.4 65.13 104.58C66.72 113.78 65.67 132.28 66.46 138.39C67.26 144.49 65.67 149.07 59.74 149.46C53.8 149.83 51.03 134.59 51.03 134.59C51.03 134.59 52.62 146.4 53.8 149.85C53.8 149.85 44.69 154.04 44.31 147.95C43.92 141.85 47.48 127.74 45.89 117.45C45.89 117.45 42.87 135.39 41.42 142.62C40.5 155.53 52.32 157.21 58.2 155.78C64.52 154.25 70.86 149.69 70.86 149.69C70.86 147.14 67.17 120.72 71.39 100.37C75.6 80.03 83.53 49.03 77.19 30.74C70.85 12.44 67.69 4.3 53.97 5.32L53.99 5.29Z" fill="#90CA5D" fill-opacity="1.000000" fill-rule="nonzero"/>
	</g>
	<g opacity="0.300000">
		<path id="Vector" d="M65.3 40.79C65.3 40.79 63.33 67.1 58.98 88.84C54.63 110.56 57.78 131.54 58.59 129.64C59.38 127.73 66.5 59.48 65.32 40.81L65.3 40.79Z" fill="#D1F6FF" fill-opacity="1.000000" fill-rule="nonzero"/>
	</g>
	<g opacity="0.300000">
		<path id="Vector" d="M57.78 41.28C57.78 41.28 56.36 58.08 53.46 71.94C50.56 85.8 52.47 99.22 52.97 98C53.5 96.78 58.42 53.22 57.76 41.28L57.78 41.28Z" fill="#D1F6FF" fill-opacity="1.000000" fill-rule="nonzero"/>
	</g>
	<g opacity="0.300000">
		<path id="Vector" d="M44.22 93.22C44.22 93.22 43.79 79.79 42.05 68.64C40.29 57.5 42.37 46.89 42.72 47.88C43.08 48.87 45.24 83.75 44.22 93.22Z" fill="#D1F6FF" fill-opacity="1.000000" fill-rule="nonzero"/>
	</g>
	<path id="Vector" d="M71.05 76.1C69.01 78.31 65.25 84.24 68.42 86.77C71.59 89.31 80.56 90.33 83.71 90.33C86.87 90.33 109.56 89.32 115.36 68.48C118.68 56.52 121.16 42.04 117.47 37.98C113.78 33.92 106.92 29.34 104.28 40.01C101.65 50.69 100.07 61.86 97.42 69.5C94.79 77.12 88.45 81.18 81.61 80.18C74.74 79.17 73.39 73.58 71.05 76.11L71.05 76.1Z" fill="#90CA5D" fill-opacity="1.000000" fill-rule="nonzero"/>
	<g opacity="0.500000">
		<path id="Vector" d="M104.28 40C104.13 40.58 104 41.18 103.86 41.78C104 42.06 104.06 42.22 104.06 42.22C106.7 34.34 110.66 36.13 110.66 36.13C107.23 40.45 108.28 48.83 108.28 48.83C108.8 42.74 113.02 37.14 113.02 37.14C114.33 43.75 110.12 62.3 110.12 62.3C113.54 54.93 115.4 39.93 115.4 39.93C115.4 39.93 118.03 47.05 110.91 70.18C103.8 93.32 75.05 87.98 71.08 85.44C67.12 82.91 69.7 77.77 69.7 77.77C67.78 80.5 65.84 84.73 68.39 86.77C71.56 89.31 80.53 90.33 83.68 90.33C86.83 90.33 109.53 89.32 115.33 68.48C118.65 56.52 121.13 42.04 117.44 37.98C113.74 33.92 106.88 29.34 104.25 40.01L104.28 40Z" fill="#90CA5D" fill-opacity="1.000000" fill-rule="nonzero"/>
	</g>
	<g opacity="0.300000">
		<path id="Vector" d="M73.48 79.57C73.48 79.57 77.44 81.86 82.7 81.6C87.98 81.34 96.16 83.38 101.16 62.79C101.16 62.79 100.89 79.05 91.15 82.37C81.38 85.67 73.48 79.57 73.48 79.57Z" fill="#D1F6FF" fill-opacity="1.000000" fill-rule="nonzero"/>
	</g>
	<g opacity="0.300000">
		<path id="Vector" d="M109.61 49.08C109.61 49.08 105.65 52.39 105.4 57.72C105.13 63.07 105.92 72.21 103.81 75.01C101.7 77.8 107.32 70.87 106.44 63.57C105.57 56.27 109.61 49.08 109.61 49.08Z" fill="#D1F6FF" fill-opacity="1.000000" fill-rule="nonzero"/>
	</g>
	<path id="Vector" d="M75.97 37.85L76.02 39.09L87.98 33.12L87.2 32.34L75.97 37.85Z" fill="#ACD65B" fill-opacity="1.000000" fill-rule="nonzero"/>
	<path id="Vector" d="M75.45 57.48L74.41 58.2L86.21 64.47L86.45 63.43L75.45 57.48Z" fill="#ACD65B" fill-opacity="1.000000" fill-rule="nonzero"/>
	<path id="Vector" d="M60.53 53.61L61.73 53.17L51.9 44.27L51.39 45.23L60.53 53.61Z" fill="#ACD65B" fill-opacity="1.000000" fill-rule="nonzero"/>
	<path id="Vector" d="M27.9 21.17L26.99 22.04L39.74 26.27L39.79 25.21L27.9 21.17Z" fill="#ACD65B" fill-opacity="1.000000" fill-rule="nonzero"/>
	<path id="Vector" d="M61.19 26.3L61.89 27.32L68.91 16.24L67.83 15.97L61.19 26.3Z" fill="#ACD65B" fill-opacity="1.000000" fill-rule="nonzero"/>
	<path id="Vector" d="M60.11 12.31L61.37 12.54L57.88 0L56.94 0.56L60.11 12.31Z" fill="#ACD65B" fill-opacity="1.000000" fill-rule="nonzero"/>
	<path id="Vector" d="M35.88 55.99L36.18 57.17L46.58 48.92L45.66 48.32L35.88 55.99Z" fill="#ACD65B" fill-opacity="1.000000" fill-rule="nonzero"/>
	<path id="Vector" d="M114.87 62.89L114.57 63.57L122.82 63.23L122.58 62.62L114.87 62.89Z" fill="#ACD65B" fill-opacity="1.000000" fill-rule="nonzero"/>
	<path id="Vector" d="M99.7 45.73L98.91 45.75L102.55 52.88L103.04 52.43L99.7 45.73Z" fill="#ACD65B" fill-opacity="1.000000" fill-rule="nonzero"/>
	<path id="Vector" d="M111.28 71.84L110.49 71.84L114.11 78.99L114.62 78.54L111.28 71.84Z" fill="#ACD65B" fill-opacity="1.000000" fill-rule="nonzero"/>
	<path id="Vector" d="M115.99 45.81L116.19 46.55L122.44 41.36L121.87 41.01L115.99 45.81Z" fill="#ACD65B" fill-opacity="1.000000" fill-rule="nonzero"/>
	<path id="Vector" d="M0.64 90.63L0 91.07L7.23 94.88L7.38 94.25L0.64 90.63Z" fill="#ACD65B" fill-opacity="1.000000" fill-rule="nonzero"/>
	<path id="Vector" d="M24.26 103.38L24.46 104.11L30.72 98.93L30.14 98.57L24.26 103.38Z" fill="#ACD65B" fill-opacity="1.000000" fill-rule="nonzero"/>
	<path id="Vector" d="M8.75 113.01L9.25 113.58L12.56 106.3L11.88 106.22L8.75 113.01Z" fill="#ACD65B" fill-opacity="1.000000" fill-rule="nonzero"/>
	<path id="Vector" d="M7.11 44.11L6.32 44.14L10.09 51.19L10.58 50.74L7.11 44.11Z" fill="#ACD65B" fill-opacity="1.000000" fill-rule="nonzero"/>
	<path id="Vector" d="M0.2 63.52L0.03 64.27L8.06 62.45L7.72 61.88L0.2 63.52Z" fill="#ACD65B" fill-opacity="1.000000" fill-rule="nonzero"/>
	<path id="Vector" d="M24.46 82.73L23.74 83.02L29.87 88.33L30.16 87.73L24.46 82.73Z" fill="#ACD65B" fill-opacity="1.000000" fill-rule="nonzero"/>
	<path id="Vector" d="M23.38 67.73L23.48 68.48L30.35 64.08L29.82 63.67L23.38 67.73Z" fill="#ACD65B" fill-opacity="1.000000" fill-rule="nonzero"/>
	<path id="Vector" d="M56.58 64.42C56.58 64.42 63.04 57.38 66.91 60.01C70.78 62.65 77.6 65.77 79.26 66.63C80.93 67.49 84.68 67.78 84.39 65.29C84.11 62.8 82.74 61.46 81.98 62.43C81.22 63.41 79.77 63.79 79.77 63.79C79.77 63.79 81.65 59.32 84.82 61.04C88 62.77 90.15 66.74 84.97 70.12C79.78 73.49 71.44 69.19 69.24 67.58C67.05 65.96 63.17 69.43 59.79 70.06C56.41 70.69 54.03 68.77 56.58 64.42L56.58 64.42Z" fill="#3F2705" fill-opacity="1.000000" fill-rule="nonzero"/>
	<g opacity="0.500000">
		<path id="Vector" d="M84.97 70.12C79.78 73.49 71.44 69.19 69.24 67.58C67.05 65.96 63.17 69.43 59.79 70.06C56.41 70.69 54.03 68.77 56.58 64.42C56.58 64.42 59.24 61.53 62.17 60.15C55.69 64.59 61.45 67.48 63.64 65.97C65.84 64.46 69.48 65.69 71.67 67.31C73.86 68.93 81.26 70.61 85.21 68.39C89.15 66.17 85.58 61.53 85.58 61.53C88.3 63.43 89.72 67.03 84.96 70.13L84.97 70.12Z" fill="#3F2705" fill-opacity="1.000000" fill-rule="nonzero"/>
	</g>
	<path id="Vector" d="M70.8 63.13C71.24 63.18 67.56 61.49 66.94 61.01C66.32 60.53 64.45 59.69 63.13 60.52C61.81 61.36 60.98 62.58 60.98 62.58C60.98 62.58 63.72 60.37 64.98 60.88C66.23 61.4 68.93 62.92 70.8 63.14L70.8 63.13Z" fill="#5B4640" fill-opacity="1.000000" fill-rule="nonzero"/>
	<path id="Vector" d="M83.4 62.06C83.4 62.06 84.87 62.83 85.1 64.67C85.3 66.26 84.5 67.14 84.59 67.1C84.8 67 86.02 65.84 85.5 64.05C84.98 62.25 84.11 62.13 83.41 62.07L83.4 62.06Z" fill="#5B4640" fill-opacity="1.000000" fill-rule="nonzero"/>
	<path id="Vector" d="M56.64 63.55C56.64 63.55 50.64 56.15 46.61 58.55C42.58 60.95 35.58 63.66 33.86 64.42C32.14 65.18 28.38 65.25 28.82 62.78C29.27 60.32 30.72 59.05 31.42 60.07C32.12 61.09 33.53 61.56 33.53 61.56C33.53 61.56 31.94 56.98 28.66 58.52C25.38 60.05 22.98 63.89 27.95 67.56C32.91 71.24 41.51 67.44 43.8 65.95C46.09 64.47 49.75 68.16 53.08 68.99C56.41 69.82 58.9 68.04 56.64 63.55Z" fill="#3F2705" fill-opacity="1.000000" fill-rule="nonzero"/>
	<g opacity="0.500000">
		<path id="Vector" d="M27.95 67.56C32.91 71.24 41.51 67.44 43.8 65.95C46.09 64.47 49.75 68.16 53.08 68.99C56.41 69.82 58.9 68.04 56.64 63.55C56.64 63.55 54.17 60.51 51.34 58.96C57.52 63.77 51.59 66.32 49.5 64.67C47.4 63.03 43.69 64.05 41.4 65.54C39.11 67.03 31.62 68.27 27.82 65.82C24.02 63.37 27.89 58.95 27.89 58.95C25.05 60.69 23.4 64.19 27.95 67.57L27.95 67.56Z" fill="#3F2705" fill-opacity="1.000000" fill-rule="nonzero"/>
	</g>
	<path id="Vector" d="M42.53 61.43C42.09 61.45 45.86 59.98 46.51 59.53C47.17 59.09 49.08 58.36 50.35 59.27C51.61 60.17 52.37 61.44 52.37 61.44C52.37 61.44 49.77 59.07 48.49 59.52C47.2 59.96 44.41 61.31 42.53 61.43Z" fill="#5B4640" fill-opacity="1.000000" fill-rule="nonzero"/>
	<path id="Vector" d="M30.02 59.61C30.02 59.61 28.5 60.29 28.16 62.12C27.86 63.69 28.6 64.61 28.51 64.56C28.31 64.45 27.16 63.23 27.8 61.47C28.44 59.7 29.31 59.63 30.02 59.61Z" fill="#5B4640" fill-opacity="1.000000" fill-rule="nonzero"/>
</svg>
