<?xml version="1.0" encoding="UTF-8"?>
<svg id="Layer_2" data-name="Layer 2" xmlns="http://www.w3.org/2000/svg" viewBox="0 0 520.65 388.97">
  <defs>
    <style>
      .cls-1 {
        fill: #fed201;
        fill-rule: evenodd;
        stroke-width: 0px;
      }
    </style>
  </defs>
  <g id="Layer_1-2" data-name="Layer 1">
    <path id="Vector_10" data-name="Vector 10" class="cls-1" d="m104.66,380.72c.66-2.5-.5-11.6-10.5-28-12.5-20.5-129.5-102-83.5-98s63,12,64.5-14.5c1.5-26.5-78.5-23-46-35.5,32.5-12.5,77,5.5,85-10.5,8-16-14.5-109.5,14-104s32,70,46,71S182.66-28.78,198.66,3.72c16,32.5,18.5,136,39,134s90-64.5,89.5-39.5c-.5,25-17,52.5,7,49S523.16-1.28,500.16,34.72c-23,36-122.5,105.5-113.5,126.5s117.5-15,93.5,9c-24,24-100,60-61,70s88.5,10.5,57.5,34c-31,23.5-37.5,28.5-17,34,20.5,5.5,35.5,24.5,10.5,30.5-25,6,89,33.5,36.5,35.5-52.5,2-402,27.5-402,6.5Z"/>
  </g>
</svg>