<svg width="201.000000" height="253.000000" viewBox="0 0 201 253" fill="none" xmlns="http://www.w3.org/2000/svg" xmlns:xlink="http://www.w3.org/1999/xlink">
	<desc>
			Created with Pixso.
	</desc>
	<defs/>
	<path id="XMLID_66_" d="M86.9 98.99C86.9 98.99 80.54 107.47 69.51 99.35C58.49 91.23 64.05 84.2 64.05 84.2C64.05 84.2 75.55 88.21 86.9 98.99Z" fill="#60361E" fill-opacity="1.000000" fill-rule="nonzero"/>
	<path id="XMLID_56_" d="M48.13 171.09C48.13 171.09 60.86 182.43 65.49 161.12C70.12 139.81 70.17 109.93 77.15 102.81C77.15 102.81 77.16 97.8 71.87 94.93L65.41 96.19C65.41 96.19 68.15 106.26 56.08 125.31C44.01 144.36 40.67 162.64 48.13 171.09Z" fill="#60361E" fill-opacity="1.000000" fill-rule="nonzero"/>
	<path id="XMLID_68_" d="M49.43 166.86C49.43 166.86 40.43 150.36 63.58 117.62C64.14 116.83 67.77 115.18 64.92 121.33C62.06 127.47 56.82 142.28 54.95 151.64C53.34 159.69 53.24 173.36 49.43 166.86Z" fill="#7F4F36" fill-opacity="1.000000" fill-rule="nonzero"/>
	<path id="XMLID_30_" d="M67.74 89.18C67.74 89.18 90.83 110.31 121.79 94.29C152.74 78.26 129.45 19.24 112.63 10.12C95.81 1.01 61.45 20.43 55.92 31.15C50.4 41.87 39.93 67.98 67.74 89.18Z" fill="#55A9DE" fill-opacity="1.000000" fill-rule="nonzero"/>
	<path id="XMLID_208_" d="M49.76 48.22C58.24 61.68 84.77 95.53 131.82 84.94C129.44 88.76 126.1 91.97 121.64 94.28C120.57 94.83 119.51 95.34 118.46 95.81C100.98 97.68 72.44 94.78 50 63.79C48.79 58.32 48.94 53.03 49.76 48.22Z" fill="#E84B23" fill-opacity="1.000000" fill-rule="nonzero"/>
	<path id="XMLID_205_" d="M63.68 22.91C66.75 29.88 73.79 40.93 89.25 49.17C108.59 59.48 127.73 53.53 135.37 50.33C136.22 54.26 136.79 58.21 136.98 62.08C136.85 61.6 136.78 61.33 136.78 61.33L119.68 82.85L111.86 62.11L93.72 76.94L90.55 54.21L69.35 65.85L69.85 40.28L53.51 48.01L54.65 33.83C55.1 32.85 55.55 31.95 55.97 31.14C57.22 28.7 59.98 25.81 63.68 22.91Z" fill="#FFD422" fill-opacity="1.000000" fill-rule="nonzero"/>
	<path id="XMLID_206_" d="M71.02 18.02C74.79 24.35 84.14 38.4 95.03 42.73C107.46 47.68 125.02 44.36 133.37 42.11C134.25 44.81 135 47.57 135.6 50.36C127.96 53.56 108.8 59.52 89.44 49.2C73.98 40.96 66.93 29.9 63.85 22.93C65.96 21.27 68.38 19.61 71.02 18.02Z" fill="#568630" fill-opacity="1.000000" fill-rule="nonzero"/>
	<path id="XMLID_210_" d="M87.69 10.43C90.89 15.03 96.25 21.73 101.89 24.32C109.67 27.9 120.32 26.63 126.33 25.49C127.6 27.73 128.81 30.14 129.93 32.67C123.25 34.37 94.62 39.87 80.4 13.25C82.78 12.19 85.24 11.23 87.69 10.43Z" fill="#568630" fill-opacity="1.000000" fill-rule="nonzero"/>
	<path id="XMLID_55_" d="M118.12 37.09C119.11 36.76 120.21 37.29 120.56 38.27C120.91 39.24 120.39 40.29 119.39 40.62C118.39 40.94 117.3 40.42 116.95 39.44C116.6 38.47 117.12 37.41 118.12 37.09Z" fill="#E84B23" fill-opacity="1.000000" fill-rule="nonzero"/>
	<path id="XMLID_57_" d="M110.16 38.88C111.16 38.56 112.25 39.09 112.6 40.06C112.95 41.04 112.43 42.09 111.44 42.42C110.44 42.74 109.35 42.21 108.99 41.24C108.64 40.26 109.17 39.21 110.16 38.88Z" fill="#E84B23" fill-opacity="1.000000" fill-rule="nonzero"/>
	<path id="XMLID_58_" d="M101.96 37.66C102.96 37.34 104.05 37.86 104.4 38.84C104.75 39.81 104.23 40.87 103.23 41.19C102.24 41.52 101.14 40.99 100.79 40.01C100.44 39.04 100.96 37.99 101.96 37.66Z" fill="#E84B23" fill-opacity="1.000000" fill-rule="nonzero"/>
	<path id="XMLID_59_" d="M93.73 34.93C94.73 34.61 95.82 35.13 96.17 36.11C96.52 37.08 96 38.14 95 38.46C94.01 38.79 92.91 38.26 92.56 37.28C92.21 36.31 92.73 35.26 93.73 34.93Z" fill="#E84B23" fill-opacity="1.000000" fill-rule="nonzero"/>
	<path id="XMLID_60_" d="M87.17 29.14C88.17 28.81 89.26 29.34 89.62 30.31C89.97 31.29 89.44 32.34 88.45 32.66C87.45 32.99 86.36 32.46 86.01 31.49C85.66 30.51 86.18 29.46 87.17 29.14Z" fill="#E84B23" fill-opacity="1.000000" fill-rule="nonzero"/>
	<path id="XMLID_63_" d="M83.36 63.26C84.36 62.93 85.45 63.46 85.8 64.44C86.15 65.41 85.63 66.46 84.64 66.79C83.64 67.11 82.55 66.58 82.19 65.61C81.84 64.63 82.37 63.58 83.36 63.26Z" fill="#568630" fill-opacity="1.000000" fill-rule="nonzero"/>
	<path id="XMLID_61_" d="M81.2 23.73C82.2 23.4 83.29 23.93 83.64 24.91C83.99 25.88 83.47 26.93 82.47 27.26C81.48 27.58 80.38 27.06 80.03 26.08C79.68 25.1 80.2 24.05 81.2 23.73Z" fill="#E84B23" fill-opacity="1.000000" fill-rule="nonzero"/>
	<path id="XMLID_190_" d="M77.13 17.96C78.12 17.63 79.22 18.16 79.57 19.13C79.92 20.11 79.4 21.16 78.4 21.49C77.4 21.81 76.31 21.28 75.96 20.31C75.61 19.33 76.13 18.28 77.13 17.96Z" fill="#E84B23" fill-opacity="1.000000" fill-rule="nonzero"/>
	<path id="XMLID_54_" d="M126.15 36.41C127.15 36.08 128.24 36.61 128.59 37.59C128.95 38.56 128.42 39.61 127.43 39.94C126.43 40.26 125.34 39.74 124.99 38.76C124.63 37.79 125.16 36.73 126.15 36.41Z" fill="#E84B23" fill-opacity="1.000000" fill-rule="nonzero"/>
	<path id="XMLID_62_" d="M64.29 50.03C65.28 49.71 66.38 50.24 66.73 51.21C67.08 52.19 66.56 53.24 65.56 53.56C64.56 53.89 63.47 53.36 63.12 52.39C62.77 51.41 63.29 50.36 64.29 50.03Z" fill="#568630" fill-opacity="1.000000" fill-rule="nonzero"/>
	<path id="XMLID_65_" d="M127.87 77.47C128.87 77.14 129.96 77.67 130.31 78.64C130.67 79.62 130.14 80.67 129.14 81C128.15 81.32 127.06 80.79 126.7 79.82C126.35 78.84 126.88 77.79 127.87 77.47Z" fill="#568630" fill-opacity="1.000000" fill-rule="nonzero"/>
	<path id="XMLID_64_" d="M108.09 75.53C109.08 75.2 110.18 75.73 110.53 76.71C110.88 77.68 110.36 78.73 109.36 79.06C108.36 79.38 107.27 78.86 106.92 77.88C106.57 76.91 107.09 75.85 108.09 75.53Z" fill="#568630" fill-opacity="1.000000" fill-rule="nonzero"/>
	<path id="XMLID_66_" d="M118.46 178.37C118.46 178.37 108.27 182.24 103.63 169.77C98.98 157.3 107.67 154.24 107.67 154.24C107.67 154.24 115.06 163.5 118.46 178.37Z" fill="#60361E" fill-opacity="1.000000" fill-rule="nonzero"/>
	<path id="XMLID_56_" d="M45.23 219.15C45.23 219.15 49.48 235.2 65.52 219.67C81.56 204.14 98.63 179.04 108.56 176.64C108.56 176.64 111.42 172.43 108.61 167.31L102.45 165.05C102.45 165.05 99.02 174.92 78.01 184.75C57 194.57 43.77 208.22 45.23 219.15Z" fill="#60361E" fill-opacity="1.000000" fill-rule="nonzero"/>
	<path id="XMLID_68_" d="M48.82 216.26C48.82 216.26 50.65 197.78 88.79 182.13C89.72 181.75 93.7 182.22 87.8 185.93C81.9 189.63 69.05 199.39 62.14 206.3C56.21 212.24 48.33 223.68 48.82 216.26Z" fill="#7F4F36" fill-opacity="1.000000" fill-rule="nonzero"/>
	<path id="XMLID_30_" d="M107.51 160.32C107.51 160.32 114.89 189.9 150.07 192.3C185.26 194.69 199.33 133.16 190.38 116.88C181.42 100.6 141.43 99.32 130.67 105.5C119.91 111.67 96.21 128.25 107.51 160.32Z" fill="#55A9DE" fill-opacity="1.000000" fill-rule="nonzero"/>
	<path id="XMLID_208_" d="M115.92 116.71C115.37 132.37 118.38 174.39 164.01 189.59C159.83 191.59 155.19 192.57 150.12 192.22C148.9 192.14 147.72 192.02 146.57 191.88C130.79 184.5 108.43 167.45 107.24 129.92C109.34 124.71 112.48 120.34 115.92 116.71Z" fill="#E84B23" fill-opacity="1.000000" fill-rule="nonzero"/>
	<path id="XMLID_205_" d="M141.85 102.55C140.46 109.98 140.08 122.88 148.38 137.71C158.77 156.28 178.27 161.09 186.52 162.31C185 166.05 183.22 169.66 181.17 173.01C181.34 172.54 181.44 172.28 181.44 172.28L154.76 181.6L160.02 160.17L136.3 163.34L146.6 142.62L122.11 141.54L137.13 120.31L118.97 118.44L128.02 107.11C128.96 106.51 129.85 105.99 130.66 105.52C133.11 104.11 137.08 103.1 141.85 102.55Z" fill="#FFD422" fill-opacity="1.000000" fill-rule="nonzero"/>
	<path id="XMLID_206_" d="M150.62 102.19C150.18 109.44 150.03 126.03 156.72 135.24C164.35 145.76 181.02 151.97 189.33 154.36C188.53 157.07 187.59 159.78 186.5 162.43C178.24 161.21 158.72 156.4 148.33 137.82C140.02 122.98 140.4 110.08 141.79 102.64C144.51 102.33 147.5 102.17 150.62 102.19Z" fill="#568630" fill-opacity="1.000000" fill-rule="nonzero"/>
	<path id="XMLID_210_" d="M168.83 104.34C168.89 109.85 169.58 118.22 172.84 123.28C177.34 130.27 187.03 134.66 192.74 136.78C192.52 139.31 192.17 141.96 191.67 144.65C185.08 142.67 157.85 132.63 161.08 102.98C163.69 103.31 166.3 103.75 168.83 104.34Z" fill="#568630" fill-opacity="1.000000" fill-rule="nonzero"/>
	<path id="XMLID_55_" d="M179.44 142.45C180.46 142.69 181.08 143.69 180.82 144.69C180.56 145.69 179.52 146.31 178.5 146.07C177.47 145.83 176.85 144.83 177.12 143.83C177.38 142.83 178.42 142.21 179.44 142.45Z" fill="#E84B23" fill-opacity="1.000000" fill-rule="nonzero"/>
	<path id="XMLID_57_" d="M171.73 139.84C172.75 140.08 173.37 141.08 173.11 142.08C172.85 143.08 171.81 143.7 170.79 143.46C169.76 143.22 169.15 142.22 169.41 141.22C169.67 140.22 170.71 139.6 171.73 139.84Z" fill="#E84B23" fill-opacity="1.000000" fill-rule="nonzero"/>
	<path id="XMLID_58_" d="M165.5 134.56C166.52 134.8 167.14 135.8 166.88 136.8C166.62 137.8 165.58 138.42 164.55 138.18C163.53 137.94 162.91 136.94 163.17 135.94C163.43 134.94 164.47 134.33 165.5 134.56Z" fill="#E84B23" fill-opacity="1.000000" fill-rule="nonzero"/>
	<path id="XMLID_59_" d="M160.08 128C161.1 128.23 161.72 129.24 161.46 130.24C161.2 131.23 160.16 131.85 159.14 131.61C158.11 131.38 157.49 130.37 157.75 129.37C158.02 128.38 159.06 127.76 160.08 128Z" fill="#E84B23" fill-opacity="1.000000" fill-rule="nonzero"/>
	<path id="XMLID_60_" d="M157.79 119.71C158.81 119.95 159.43 120.95 159.17 121.95C158.91 122.95 157.87 123.57 156.85 123.33C155.82 123.09 155.2 122.09 155.46 121.09C155.72 120.09 156.76 119.48 157.79 119.71Z" fill="#E84B23" fill-opacity="1.000000" fill-rule="nonzero"/>
	<path id="XMLID_63_" d="M135.53 146.51C136.56 146.75 137.17 147.75 136.91 148.75C136.65 149.75 135.61 150.37 134.59 150.13C133.57 149.89 132.95 148.89 133.21 147.89C133.47 146.89 134.51 146.27 135.53 146.51Z" fill="#568630" fill-opacity="1.000000" fill-rule="nonzero"/>
	<path id="XMLID_61_" d="M155.76 112.06C156.79 112.3 157.41 113.3 157.15 114.3C156.89 115.3 155.85 115.92 154.82 115.68C153.8 115.44 153.18 114.44 153.44 113.44C153.7 112.44 154.74 111.82 155.76 112.06Z" fill="#E84B23" fill-opacity="1.000000" fill-rule="nonzero"/>
	<path id="XMLID_190_" d="M155.55 105.08C156.58 105.32 157.19 106.32 156.93 107.32C156.67 108.32 155.63 108.94 154.61 108.7C153.59 108.46 152.97 107.46 153.23 106.46C153.49 105.46 154.53 104.85 155.55 105.08Z" fill="#E84B23" fill-opacity="1.000000" fill-rule="nonzero"/>
	<path id="XMLID_54_" d="M186.59 146.04C187.62 146.28 188.24 147.28 187.98 148.28C187.72 149.28 186.68 149.89 185.65 149.66C184.63 149.42 184.01 148.42 184.27 147.42C184.53 146.42 185.57 145.8 186.59 146.04Z" fill="#E84B23" fill-opacity="1.000000" fill-rule="nonzero"/>
	<path id="XMLID_62_" d="M126.83 125.48C127.85 125.72 128.47 126.72 128.21 127.72C127.95 128.72 126.91 129.34 125.89 129.1C124.86 128.86 124.24 127.86 124.5 126.86C124.76 125.86 125.8 125.24 126.83 125.48Z" fill="#568630" fill-opacity="1.000000" fill-rule="nonzero"/>
	<path id="XMLID_65_" d="M165.14 181.55C166.16 181.79 166.78 182.79 166.52 183.79C166.26 184.79 165.22 185.41 164.19 185.17C163.17 184.93 162.55 183.93 162.81 182.93C163.07 181.93 164.11 181.31 165.14 181.55Z" fill="#568630" fill-opacity="1.000000" fill-rule="nonzero"/>
	<path id="XMLID_64_" d="M149.53 169.67C150.56 169.9 151.18 170.91 150.92 171.91C150.66 172.9 149.62 173.52 148.59 173.28C147.57 173.05 146.95 172.04 147.21 171.04C147.47 170.04 148.51 169.43 149.53 169.67Z" fill="#568630" fill-opacity="1.000000" fill-rule="nonzero"/>
</svg>
