<svg width="62.000000" height="80.000000" viewBox="0 0 62 80" fill="none" xmlns="http://www.w3.org/2000/svg" xmlns:xlink="http://www.w3.org/1999/xlink">
	<desc>
			Created with Pixso.
	</desc>
	<defs/>
	<g opacity="0.500000">
		<path id="Vector" d="M44.41 74.3C44.57 76.42 39.08 78.53 32.15 79.01C25.22 79.5 19.48 78.19 19.32 76.07C19.15 73.95 24.64 71.84 31.57 71.35C38.5 70.86 44.24 72.18 44.41 74.29L44.41 74.3Z" fill="#D4D4D5" fill-opacity="1.000000" fill-rule="nonzero"/>
	</g>
	<path id="Vector" d="M27.72 56.56C28.62 58.54 29.91 63.5 27.43 64.71C24.95 65.92 19.06 64.93 17.04 64.31C15.02 63.7 0.78 58.61 0.92 42.57C1.01 33.37 2.1 22.52 5.19 20.32C8.29 18.12 13.49 16.16 13.21 24.31C12.93 32.46 11.87 40.78 12.15 46.75C12.42 52.72 15.7 56.86 20.25 57.45C24.8 58.04 26.68 54.3 27.71 56.56L27.72 56.56Z" fill="#90CA5D" fill-opacity="1.000000" fill-rule="nonzero"/>
	<g opacity="0.500000">
		<path id="Vector" d="M13.22 24.31C13.2 24.77 13.18 25.22 13.16 25.67C13.03 25.85 12.95 25.94 12.95 25.94C12.72 19.8 9.88 20.31 9.88 20.31C11.26 24.07 9.05 29.87 9.05 29.87C9.84 25.4 8.19 20.58 8.19 20.58C6.13 25.06 5.4 39.17 5.4 39.17C4.58 33.23 6.16 22.13 6.16 22.13C6.16 22.13 3.17 26.72 3.45 44.66C3.72 62.6 23 64.31 25.98 63.25C28.97 62.19 28.27 58.02 28.27 58.02C28.99 60.35 29.45 63.75 27.45 64.73C24.97 65.94 19.07 64.94 17.06 64.33C15.04 63.72 0.8 58.63 0.94 42.58C1.02 33.38 2.12 22.54 5.21 20.33C8.31 18.13 13.51 16.17 13.23 24.33L13.22 24.31Z" fill="#90CA5D" fill-opacity="1.000000" fill-rule="nonzero"/>
	</g>
	<g opacity="0.300000">
		<path id="Vector" d="M25.53 58.59C25.53 58.59 22.6 59.46 19.28 58.27C15.98 57.07 10.39 56.95 10.99 41.24C10.99 41.24 8.17 52.94 13.77 57.18C19.37 61.43 25.52 58.58 25.52 58.58L25.53 58.59Z" fill="#D1F6FF" fill-opacity="1.000000" fill-rule="nonzero"/>
	</g>
	<g opacity="0.300000">
		<path id="Vector" d="M8.16 29.79C8.16 29.79 10.07 32.92 9.26 36.79C8.44 40.66 6.25 47.07 7.08 49.48C7.9 51.88 5.6 45.84 7.51 40.78C9.4 35.72 8.16 29.79 8.16 29.79Z" fill="#D1F6FF" fill-opacity="1.000000" fill-rule="nonzero"/>
	</g>
	<path id="Vector" d="M35.13 75.49C35.13 74.19 33.25 60.74 35.4 50.38C37.55 40.02 41.58 24.23 38.35 14.91C35.12 5.6 33.52 1.45 26.53 1.97C19.55 2.49 17.67 4.31 17.67 14.66C17.67 25.01 19.27 36.4 19.81 44.95C20.35 53.49 21.96 62.29 20.35 70.32C18.73 78.35 25.45 79.38 28.68 78.6C31.9 77.83 35.12 75.5 35.12 75.5L35.13 75.49Z" fill="#90CA5D" fill-opacity="1.000000" fill-rule="nonzero"/>
	<g opacity="0.500000">
		<path id="Vector" d="M26.54 1.96C19.56 2.48 17.68 4.3 17.68 14.65C17.68 17.25 17.78 19.9 17.93 22.57C17.9 21.96 18.4 5.28 22.42 4.51C22.42 4.51 23.43 19.46 24.24 22.18C24.24 22.18 23.63 4.9 24.24 4.51C24.85 4.12 29.68 10.92 29.88 19.85C29.88 19.85 30.88 7.23 27.26 4.32C27.26 4.32 33.1 2.96 34.31 11.12C35.52 19.27 34.91 28 34.91 33.83C34.91 39.65 31.41 47.85 32.21 52.53C33.02 57.21 32.49 66.64 32.89 69.75C33.3 72.85 32.49 75.18 29.47 75.38C26.44 75.57 25.03 67.81 25.03 67.81C25.03 67.81 25.84 73.83 26.44 75.58C26.44 75.58 21.81 77.72 21.61 74.61C21.41 71.51 23.22 64.32 22.42 59.08C22.42 59.08 20.88 68.22 20.14 71.9C19.67 78.48 25.69 79.33 28.68 78.6C31.9 77.82 35.13 75.5 35.13 75.5C35.13 74.2 33.25 60.75 35.4 50.39C37.55 40.03 41.58 24.24 38.35 14.92C35.12 5.6 33.52 1.46 26.53 1.98L26.54 1.96Z" fill="#90CA5D" fill-opacity="1.000000" fill-rule="nonzero"/>
	</g>
	<g opacity="0.300000">
		<path id="Vector" d="M32.3 20.04C32.3 20.04 31.29 33.44 29.08 44.51C26.86 55.58 28.47 66.26 28.88 65.29C29.28 64.32 32.91 29.56 32.31 20.05L32.3 20.04Z" fill="#D1F6FF" fill-opacity="1.000000" fill-rule="nonzero"/>
	</g>
	<g opacity="0.300000">
		<path id="Vector" d="M28.47 20.29C28.47 20.29 27.75 28.85 26.27 35.91C24.79 42.96 25.76 49.8 26.02 49.18C26.29 48.56 28.79 26.37 28.46 20.29L28.47 20.29Z" fill="#D1F6FF" fill-opacity="1.000000" fill-rule="nonzero"/>
	</g>
	<g opacity="0.300000">
		<path id="Vector" d="M21.57 46.74C21.57 46.74 21.34 39.9 20.46 34.22C19.57 28.55 20.62 23.15 20.8 23.65C20.98 24.15 22.08 41.92 21.57 46.74Z" fill="#D1F6FF" fill-opacity="1.000000" fill-rule="nonzero"/>
	</g>
	<path id="Vector" d="M35.23 38.02C34.19 39.15 32.27 42.17 33.89 43.46C35.5 44.75 40.07 45.27 41.68 45.27C43.28 45.27 54.84 44.76 57.79 34.14C59.49 28.05 60.75 20.68 58.87 18.61C56.99 16.54 53.49 14.21 52.15 19.65C50.81 25.08 50.01 30.78 48.66 34.66C47.32 38.55 44.09 40.61 40.6 40.1C37.11 39.59 36.42 36.74 35.23 38.03L35.23 38.02Z" fill="#90CA5D" fill-opacity="1.000000" fill-rule="nonzero"/>
	<g opacity="0.500000">
		<path id="Vector" d="M52.15 19.64C52.08 19.94 52.01 20.24 51.94 20.55C52.01 20.69 52.04 20.77 52.04 20.77C53.38 16.76 55.4 17.67 55.4 17.67C53.65 19.87 54.19 24.14 54.19 24.14C54.45 21.04 56.6 18.18 56.6 18.18C57.27 21.55 55.12 31 55.12 31C56.87 27.24 57.81 19.61 57.81 19.61C57.81 19.61 59.15 23.23 55.53 35.01C51.9 46.79 37.26 44.07 35.24 42.78C33.23 41.49 34.54 38.88 34.54 38.88C33.56 40.27 32.57 42.42 33.87 43.46C35.48 44.75 40.05 45.27 41.66 45.27C43.26 45.27 54.82 44.76 57.78 34.14C59.47 28.05 60.73 20.68 58.85 18.61C56.97 16.54 53.47 14.21 52.14 19.65L52.15 19.64Z" fill="#90CA5D" fill-opacity="1.000000" fill-rule="nonzero"/>
	</g>
	<g opacity="0.300000">
		<path id="Vector" d="M36.46 39.8C36.46 39.8 38.48 40.96 41.16 40.83C43.85 40.7 48.01 41.73 50.56 31.25C50.56 31.25 50.43 39.53 45.46 41.22C40.49 42.9 36.46 39.8 36.46 39.8Z" fill="#D1F6FF" fill-opacity="1.000000" fill-rule="nonzero"/>
	</g>
	<g opacity="0.300000">
		<path id="Vector" d="M54.87 24.26C54.87 24.26 52.85 25.95 52.72 28.66C52.58 31.39 52.99 36.05 51.91 37.47C50.84 38.89 53.7 35.36 53.25 31.64C52.81 27.93 54.87 24.26 54.87 24.26Z" fill="#D1F6FF" fill-opacity="1.000000" fill-rule="nonzero"/>
	</g>
	<path id="Vector" d="M37.73 18.55L37.76 19.18L43.85 16.14L43.45 15.74L37.73 18.55Z" fill="#ACD65B" fill-opacity="1.000000" fill-rule="nonzero"/>
	<path id="Vector" d="M37.47 28.54L36.94 28.91L42.95 32.1L43.07 31.57L37.47 28.54Z" fill="#ACD65B" fill-opacity="1.000000" fill-rule="nonzero"/>
	<path id="Vector" d="M29.87 26.57L30.48 26.35L25.47 21.81L25.21 22.3L29.87 26.57Z" fill="#ACD65B" fill-opacity="1.000000" fill-rule="nonzero"/>
	<path id="Vector" d="M13.25 10.05L12.79 10.5L19.28 12.65L19.31 12.11L13.25 10.05Z" fill="#ACD65B" fill-opacity="1.000000" fill-rule="nonzero"/>
	<path id="Vector" d="M30.2 12.66L30.56 13.18L34.14 7.54L33.59 7.4L30.2 12.66Z" fill="#ACD65B" fill-opacity="1.000000" fill-rule="nonzero"/>
	<path id="Vector" d="M29.65 5.54L30.3 5.65L28.52 -0.73L28.04 -0.44L29.65 5.54Z" fill="#ACD65B" fill-opacity="1.000000" fill-rule="nonzero"/>
	<path id="Vector" d="M17.31 27.78L17.47 28.38L22.77 24.18L22.29 23.87L17.31 27.78Z" fill="#ACD65B" fill-opacity="1.000000" fill-rule="nonzero"/>
	<path id="Vector" d="M57.54 31.3L57.39 31.64L61.59 31.47L61.47 31.16L57.54 31.3Z" fill="#ACD65B" fill-opacity="1.000000" fill-rule="nonzero"/>
	<path id="Vector" d="M49.82 22.56L49.41 22.57L51.27 26.2L51.52 25.97L49.82 22.56Z" fill="#ACD65B" fill-opacity="1.000000" fill-rule="nonzero"/>
	<path id="Vector" d="M55.71 35.86L55.31 35.86L57.16 39.5L57.41 39.26L55.71 35.86Z" fill="#ACD65B" fill-opacity="1.000000" fill-rule="nonzero"/>
	<path id="Vector" d="M58.11 22.6L58.21 22.97L61.4 20.33L61.11 20.15L58.11 22.6Z" fill="#ACD65B" fill-opacity="1.000000" fill-rule="nonzero"/>
	<path id="Vector" d="M-0.63 45.42L-0.96 45.64L2.73 47.59L2.8 47.27L-0.63 45.42Z" fill="#ACD65B" fill-opacity="1.000000" fill-rule="nonzero"/>
	<path id="Vector" d="M11.4 51.92L11.5 52.29L14.69 49.65L14.39 49.47L11.4 51.92Z" fill="#ACD65B" fill-opacity="1.000000" fill-rule="nonzero"/>
	<path id="Vector" d="M3.5 56.82L3.76 57.11L5.44 53.41L5.1 53.37L3.5 56.82Z" fill="#ACD65B" fill-opacity="1.000000" fill-rule="nonzero"/>
	<path id="Vector" d="M2.66 21.73L2.26 21.75L4.18 25.34L4.43 25.11L2.66 21.73Z" fill="#ACD65B" fill-opacity="1.000000" fill-rule="nonzero"/>
	<path id="Vector" d="M-0.86 31.62L-0.94 32L3.15 31.07L2.97 30.78L-0.86 31.62Z" fill="#ACD65B" fill-opacity="1.000000" fill-rule="nonzero"/>
	<path id="Vector" d="M11.5 41.4L11.13 41.55L14.26 44.25L14.4 43.95L11.5 41.4Z" fill="#ACD65B" fill-opacity="1.000000" fill-rule="nonzero"/>
	<path id="Vector" d="M10.95 33.76L11 34.14L14.5 31.9L14.23 31.69L10.95 33.76Z" fill="#ACD65B" fill-opacity="1.000000" fill-rule="nonzero"/>
</svg>
