<svg width="212.000000" height="57.000000" viewBox="0 0 212 57" fill="none" xmlns="http://www.w3.org/2000/svg" xmlns:xlink="http://www.w3.org/1999/xlink">
	<desc>
			Created with Pixso.
	</desc>
	<defs>
		<clipPath id="clip1024_2959">
			<rect id="perekrestok_logo_RGB 1" width="212.000000" height="57.000000" fill="white" fill-opacity="0"/>
		</clipPath>
	</defs>
	<rect id="perekrestok_logo_RGB 1" width="212.000000" height="57.000000" fill="#FFFFFF" fill-opacity="0"/>
	<g clip-path="url(#clip1024_2959)">
		<mask id="mask1024_2963" mask-type="alpha" maskUnits="userSpaceOnUse" x="0.000000" y="0.000000" width="212.000000" height="57.000000">
			<path id="Vector" d="M0 0L212 0L212 57L0 57L0 0Z" fill="#000000" fill-opacity="1.000000" fill-rule="evenodd"/>
		</mask>
		<g mask="url(#mask1024_2963)">
			<path id="Vector" d="M29.2 23.16L26.61 25.77L24.02 23.16C22.59 21.72 22.59 19.39 24.02 17.9C25.45 16.46 27.77 16.46 29.2 17.9C30.63 19.39 30.63 21.72 29.2 23.16Z" fill="#5FAF2D" fill-opacity="1.000000" fill-rule="nonzero"/>
			<path id="Vector" d="M24.02 30.54L26.61 27.93L29.2 30.54C30.63 31.98 30.63 34.32 29.2 35.81C27.77 37.25 25.45 37.25 24.02 35.81C22.59 34.32 22.59 31.98 24.02 30.54Z" fill="#005A28" fill-opacity="1.000000" fill-rule="nonzero"/>
			<path id="Vector" d="M30.27 29.51L27.68 26.85L30.27 24.24C31.7 22.8 34.02 22.8 35.45 24.24C36.88 25.68 36.88 28.02 35.45 29.51C34.02 30.95 31.7 30.95 30.27 29.51Z" fill="#1EAF37" fill-opacity="1.000000" fill-rule="nonzero"/>
			<path id="Vector" d="M22.99 24.24L25.58 26.85L22.99 29.46C21.56 30.9 19.24 30.9 17.81 29.46C16.38 28.02 16.38 25.68 17.81 24.2C19.19 22.8 21.56 22.8 22.99 24.24Z" fill="#AAE641" fill-opacity="1.000000" fill-rule="nonzero"/>
			<path id="Vector" d="M168.06 26.04L164.26 26.04L164.26 35.27L161.14 35.27L161.14 26.04L157.34 26.04L157.34 22.98L168.06 22.98L168.06 26.04ZM61.43 30.45L70.54 30.45C70.63 30.05 70.68 29.6 70.68 29.15C70.68 25.55 68.13 22.67 64.56 22.67C60.76 22.67 58.17 25.5 58.17 29.15C58.17 32.79 60.72 35.63 64.78 35.63C67.1 35.63 68.94 34.68 70.05 33.02L67.55 31.53C67.02 32.25 66.03 32.75 64.83 32.75C63.22 32.75 61.88 32.07 61.43 30.45ZM61.39 27.98C61.75 26.4 62.91 25.5 64.56 25.5C65.85 25.5 67.19 26.22 67.55 27.98L61.39 27.98ZM79.87 22.67C78.13 22.67 76.84 23.34 75.95 24.47L75.95 23.03L72.82 23.03L72.82 40.17L75.95 40.17L75.95 33.83C76.84 34.95 78.09 35.63 79.87 35.63C83.13 35.63 85.77 32.79 85.77 29.15C85.81 25.5 83.13 22.67 79.87 22.67ZM79.29 32.57C77.37 32.57 75.95 31.17 75.95 29.1C75.95 27.03 77.37 25.64 79.29 25.64C81.21 25.64 82.64 27.03 82.64 29.1C82.64 31.17 81.26 32.57 79.29 32.57ZM90.64 30.45L99.74 30.45C99.83 30.05 99.88 29.6 99.88 29.15C99.88 25.55 97.33 22.67 93.76 22.67C89.97 22.67 87.38 25.5 87.38 29.15C87.38 32.79 89.92 35.63 93.98 35.63C96.31 35.63 98.14 34.68 99.25 33.02L96.75 31.53C96.22 32.25 95.23 32.75 94.03 32.75C92.42 32.75 91.08 32.07 90.64 30.45ZM90.59 27.98C90.95 26.4 92.11 25.5 93.76 25.5C95.06 25.5 96.4 26.22 96.75 27.98L90.59 27.98ZM122.69 22.67C120.91 22.67 119.66 23.34 118.77 24.47L118.77 23.03L115.64 23.03L115.64 40.17L118.77 40.17L118.77 33.83C119.66 34.95 120.91 35.63 122.69 35.63C125.95 35.63 128.59 32.79 128.59 29.15C128.59 25.5 125.91 22.67 122.69 22.67ZM122.11 32.57C120.19 32.57 118.77 31.17 118.77 29.1C118.77 27.03 120.19 25.64 122.11 25.64C124.03 25.64 125.46 27.03 125.46 29.1C125.46 31.17 124.03 32.57 122.11 32.57ZM133.46 30.45L142.56 30.45C142.65 30.05 142.7 29.6 142.7 29.15C142.7 25.55 140.15 22.67 136.58 22.67C132.78 22.67 130.2 25.5 130.2 29.15C130.2 32.79 132.74 35.63 136.8 35.63C139.13 35.63 140.96 34.68 142.07 33.02L139.57 31.53C139.04 32.25 138.05 32.75 136.85 32.75C135.2 32.75 133.86 32.07 133.46 30.45ZM134.13 21.72C135.02 21.72 135.73 21 135.73 20.1C135.73 19.2 135.02 18.44 134.13 18.44C133.23 18.44 132.47 19.2 132.47 20.1C132.47 21 133.23 21.72 134.13 21.72ZM133.37 27.98C133.72 26.4 134.88 25.5 136.54 25.5C137.83 25.5 139.17 26.22 139.53 27.98L133.37 27.98ZM138.68 21.72C139.57 21.72 140.29 21 140.29 20.1C140.29 19.2 139.57 18.44 138.68 18.44C137.79 18.44 137.03 19.2 137.03 20.1C137.07 21 137.79 21.72 138.68 21.72ZM150.51 35.58C152.88 35.58 154.93 34.32 155.96 32.39L153.24 30.81C152.74 31.8 151.72 32.43 150.47 32.43C148.59 32.43 147.21 31.04 147.21 29.1C147.21 27.17 148.59 25.77 150.47 25.77C151.72 25.77 152.74 26.4 153.24 27.39L155.91 25.82C154.93 23.93 152.88 22.67 150.51 22.67C146.85 22.67 144.13 25.5 144.13 29.15C144.13 32.79 146.85 35.58 150.51 35.58ZM175.47 35.58C179.04 35.58 181.86 32.75 181.86 29.1C181.86 25.46 179.04 22.67 175.47 22.67C171.9 22.67 169.09 25.5 169.09 29.15C169.09 32.79 171.9 35.58 175.47 35.58ZM175.47 32.52C173.64 32.52 172.21 31.13 172.21 29.15C172.21 27.17 173.64 25.77 175.47 25.77C177.35 25.77 178.78 27.17 178.78 29.15C178.78 31.13 177.35 32.52 175.47 32.52ZM109.97 35.27L113.59 35.27L108.94 29.06L113.41 23.03L109.7 23.03L106.26 27.98L105.19 27.98L105.19 23.03L102.07 23.03L102.07 35.27L105.19 35.27L105.19 30.45L106.49 30.45L109.97 35.27ZM191.63 35.27L195.25 35.27L190.65 29.06L195.12 23.03L191.41 23.03L187.93 28.02L186.86 28.02L186.86 23.03L183.73 23.03L183.73 35.27L186.86 35.27L186.86 30.45L188.15 30.45L191.63 35.27ZM56.12 18.4L43.48 18.4L43.48 35.22L46.83 35.22L46.83 21.59L52.82 21.59L52.82 35.27L56.17 35.27L56.17 18.4L56.12 18.4Z" fill="#005A28" fill-opacity="1.000000" fill-rule="nonzero"/>
		</g>
	</g>
</svg>
